{
    "asset" : {
        "generator" : "Khronos glTF Blender I/O v1.5.17",
        "version" : "2.0"
    },
    "scene" : 0,
    "scenes" : [
        {
            "name" : "Scene",
            "nodes" : [
                0,
                1,
                2,
                3,
                4,
                5,
                6,
                7,
                8,
                9,
                10
            ]
        }
    ],
    "nodes" : [
        {
            "mesh" : 0,
            "name" : "Worm Gear",
            "scale" : [
                0.5,
                0.5,
                0.5
            ]
        },
        {
            "mesh" : 1,
            "name" : "Gear",
            "rotation" : [
                0.5,
                -0.5,
                -0.5,
                0.4999999701976776
            ],
            "translation" : [
                0,
                4.099999904632568,
                3.0999999046325684
            ]
        },
        {
            "mesh" : 2,
            "name" : "Roundcube",
            "scale" : [
                3.5,
                0.30000001192092896,
                0.699999988079071
            ],
            "translation" : [
                5.5,
                0,
                -0.5
            ]
        },
        {
            "mesh" : 3,
            "name" : "Roundcube.001",
            "scale" : [
                3.5,
                0.30000001192092896,
                2.200000047683716
            ],
            "translation" : [
                5.5,
                0,
                2.799999952316284
            ]
        },
        {
            "mesh" : 4,
            "name" : "Text",
            "scale" : [
                0.699999988079071,
                0.6000000238418579,
                0.699999988079071
            ],
            "translation" : [
                8.197680473327637,
                0.6000000238418579,
                -0.30000001192092896
            ]
        },
        {
            "mesh" : 5,
            "name" : "ShaunFace",
            "rotation" : [
                0.2588190734386444,
                0,
                0,
                0.965925931930542
            ],
            "scale" : [
                6,
                1,
                6
            ],
            "translation" : [
                5.300000190734863,
                2,
                -4
            ]
        },
        {
            "mesh" : 6,
            "name" : "text.001",
            "scale" : [
                0.5,
                1,
                0.5
            ],
            "translation" : [
                8.300000190734863,
                0.6000000238418579,
                1.7000000476837158
            ]
        },
        {
            "mesh" : 7,
            "name" : "Gear.001",
            "translation" : [
                0,
                3,
                0
            ]
        },
        {
            "mesh" : 8,
            "name" : "Gear.002",
            "rotation" : [
                0,
                0.13052619993686676,
                0,
                0.9914448857307434
            ],
            "translation" : [
                0,
                3,
                2
            ]
        },
        {
            "name" : "Camera",
            "rotation" : [
                0.483536034822464,
                0.33687159419059753,
                -0.20870360732078552,
                0.7804827094078064
            ],
            "translation" : [
                7.358891487121582,
                4.958309173583984,
                6.925790786743164
            ]
        },
        {
            "mesh" : 9,
            "name" : "PPlogo",
            "scale" : [
                4,
                1,
                4
            ],
            "translation" : [
                0,
                4.099999904632568,
                5.5
            ]
        }
    ],
    "animations" : [
        {
            "channels" : [
                {
                    "sampler" : 0,
                    "target" : {
                        "node" : 0,
                        "path" : "rotation"
                    }
                }
            ],
            "name" : "Worm GearAction",
            "samplers" : [
                {
                    "input" : 30,
                    "interpolation" : "LINEAR",
                    "output" : 31
                }
            ]
        },
        {
            "channels" : [
                {
                    "sampler" : 0,
                    "target" : {
                        "node" : 10,
                        "path" : "rotation"
                    }
                },
                {
                    "sampler" : 1,
                    "target" : {
                        "node" : 10,
                        "path" : "translation"
                    }
                }
            ],
            "name" : "PPlogoAction",
            "samplers" : [
                {
                    "input" : 32,
                    "interpolation" : "LINEAR",
                    "output" : 33
                },
                {
                    "input" : 34,
                    "interpolation" : "STEP",
                    "output" : 35
                }
            ]
        }
    ],
    "materials" : [
        {
            "alphaMode" : "BLEND",
            "name" : "Material.002",
            "pbrMetallicRoughness" : {
                "baseColorFactor" : [
                    0.0047768764197826385,
                    0.5906190276145935,
                    0.015996314585208893,
                    0.5
                ],
                "metallicFactor" : 0,
                "roughnessFactor" : 0.5
            }
        },
        {
            "doubleSided" : true,
            "name" : "Material.005",
            "pbrMetallicRoughness" : {
                "baseColorFactor" : [
                    0,
                    0.00023313307610806078,
                    0.03961724415421486,
                    0.800000011920929
                ],
                "metallicFactor" : 0,
                "roughnessFactor" : 0.5
            }
        },
        {
            "alphaMode" : "BLEND",
            "doubleSided" : true,
            "name" : "ShaunFace",
            "pbrMetallicRoughness" : {
                "baseColorTexture" : {
                    "index" : 0
                },
                "metallicFactor" : 0,
                "roughnessFactor" : 0.5
            }
        },
        {
            "doubleSided" : true,
            "name" : "Material.003",
            "pbrMetallicRoughness" : {
                "baseColorFactor" : [
                    0.800000011920929,
                    0.800000011920929,
                    0.800000011920929,
                    1
                ],
                "metallicFactor" : 0,
                "roughnessFactor" : 0.5
            }
        },
        {
            "alphaMode" : "BLEND",
            "doubleSided" : true,
            "name" : "PPlogo",
            "pbrMetallicRoughness" : {
                "baseColorTexture" : {
                    "index" : 1
                },
                "metallicFactor" : 0,
                "roughnessFactor" : 0.5
            }
        }
    ],
    "meshes" : [
        {
            "name" : "Worm Gear",
            "primitives" : [
                {
                    "attributes" : {
                        "POSITION" : 0,
                        "NORMAL" : 1
                    },
                    "indices" : 2,
                    "material" : 0
                }
            ]
        },
        {
            "name" : "Gear",
            "primitives" : [
                {
                    "attributes" : {
                        "POSITION" : 3,
                        "NORMAL" : 4
                    },
                    "indices" : 5,
                    "material" : 0
                }
            ]
        },
        {
            "name" : "Roundcube",
            "primitives" : [
                {
                    "attributes" : {
                        "POSITION" : 6,
                        "NORMAL" : 7
                    },
                    "indices" : 8,
                    "material" : 1
                }
            ]
        },
        {
            "name" : "Roundcube.001",
            "primitives" : [
                {
                    "attributes" : {
                        "POSITION" : 9,
                        "NORMAL" : 10
                    },
                    "indices" : 8,
                    "material" : 1
                }
            ]
        },
        {
            "name" : "Text.002",
            "primitives" : [
                {
                    "attributes" : {
                        "POSITION" : 11,
                        "NORMAL" : 12,
                        "TEXCOORD_0" : 13
                    },
                    "indices" : 14
                }
            ]
        },
        {
            "name" : "ShaunFace.001",
            "primitives" : [
                {
                    "attributes" : {
                        "POSITION" : 15,
                        "NORMAL" : 16,
                        "TEXCOORD_0" : 17
                    },
                    "indices" : 18,
                    "material" : 2
                }
            ]
        },
        {
            "name" : "Text.001",
            "primitives" : [
                {
                    "attributes" : {
                        "POSITION" : 19,
                        "NORMAL" : 20,
                        "TEXCOORD_0" : 21
                    },
                    "indices" : 22,
                    "material" : 3
                }
            ]
        },
        {
            "name" : "Gear.003",
            "primitives" : [
                {
                    "attributes" : {
                        "POSITION" : 23,
                        "NORMAL" : 24
                    },
                    "indices" : 5,
                    "material" : 0
                }
            ]
        },
        {
            "name" : "Gear.004",
            "primitives" : [
                {
                    "attributes" : {
                        "POSITION" : 25,
                        "NORMAL" : 26
                    },
                    "indices" : 5,
                    "material" : 0
                }
            ]
        },
        {
            "name" : "PPlogo",
            "primitives" : [
                {
                    "attributes" : {
                        "POSITION" : 27,
                        "NORMAL" : 28,
                        "TEXCOORD_0" : 29
                    },
                    "indices" : 18,
                    "material" : 4
                }
            ]
        }
    ],
    "textures" : [
        {
            "sampler" : 0,
            "source" : 0
        },
        {
            "sampler" : 0,
            "source" : 1
        }
    ],
    "images" : [
        {
            "bufferView" : 19,
            "mimeType" : "image/png",
            "name" : "ShaunFace"
        },
        {
            "bufferView" : 31,
            "mimeType" : "image/png",
            "name" : "PPlogo"
        }
    ],
    "accessors" : [
        {
            "bufferView" : 0,
            "componentType" : 5126,
            "count" : 17856,
            "max" : [
                1.100000023841858,
                6.200000286102295,
                1.100000023841858
            ],
            "min" : [
                -1.100000023841858,
                0,
                -1.100000023841858
            ],
            "type" : "VEC3"
        },
        {
            "bufferView" : 1,
            "componentType" : 5126,
            "count" : 17856,
            "type" : "VEC3"
        },
        {
            "bufferView" : 2,
            "componentType" : 5123,
            "count" : 26784,
            "type" : "SCALAR"
        },
        {
            "bufferView" : 3,
            "componentType" : 5126,
            "count" : 720,
            "max" : [
                1.0852446556091309,
                0.20000000298023224,
                1.0852446556091309
            ],
            "min" : [
                -1.0852446556091309,
                -0.20000000298023224,
                -1.0852446556091309
            ],
            "type" : "VEC3"
        },
        {
            "bufferView" : 4,
            "componentType" : 5126,
            "count" : 720,
            "type" : "VEC3"
        },
        {
            "bufferView" : 5,
            "componentType" : 5123,
            "count" : 1728,
            "type" : "SCALAR"
        },
        {
            "bufferView" : 6,
            "componentType" : 5126,
            "count" : 600,
            "max" : [
                1,
                1,
                1
            ],
            "min" : [
                -1,
                -1,
                -1
            ],
            "type" : "VEC3"
        },
        {
            "bufferView" : 7,
            "componentType" : 5126,
            "count" : 600,
            "type" : "VEC3"
        },
        {
            "bufferView" : 8,
            "componentType" : 5123,
            "count" : 900,
            "type" : "SCALAR"
        },
        {
            "bufferView" : 9,
            "componentType" : 5126,
            "count" : 600,
            "max" : [
                1,
                1,
                1
            ],
            "min" : [
                -1,
                -1,
                -1
            ],
            "type" : "VEC3"
        },
        {
            "bufferView" : 10,
            "componentType" : 5126,
            "count" : 600,
            "type" : "VEC3"
        },
        {
            "bufferView" : 11,
            "componentType" : 5126,
            "count" : 7031,
            "max" : [
                -0.0010001659393310547,
                0.20000000298023224,
                0.009000000543892384
            ],
            "min" : [
                -6.373000621795654,
                -0.20000000298023224,
                -0.6910000443458557
            ],
            "type" : "VEC3"
        },
        {
            "bufferView" : 12,
            "componentType" : 5126,
            "count" : 7031,
            "type" : "VEC3"
        },
        {
            "bufferView" : 13,
            "componentType" : 5126,
            "count" : 7031,
            "type" : "VEC2"
        },
        {
            "bufferView" : 14,
            "componentType" : 5123,
            "count" : 12888,
            "type" : "SCALAR"
        },
        {
            "bufferView" : 15,
            "componentType" : 5126,
            "count" : 4,
            "max" : [
                0.5,
                0,
                0.5
            ],
            "min" : [
                -0.5,
                0,
                -0.5
            ],
            "type" : "VEC3"
        },
        {
            "bufferView" : 16,
            "componentType" : 5126,
            "count" : 4,
            "type" : "VEC3"
        },
        {
            "bufferView" : 17,
            "componentType" : 5126,
            "count" : 4,
            "type" : "VEC2"
        },
        {
            "bufferView" : 18,
            "componentType" : 5123,
            "count" : 6,
            "type" : "SCALAR"
        },
        {
            "bufferView" : 20,
            "componentType" : 5126,
            "count" : 42154,
            "max" : [
                -0.0010001659393310547,
                0.10000000149011612,
                5.008999824523926
            ],
            "min" : [
                -9.583999633789062,
                -0.10000000149011612,
                -0.6820000410079956
            ],
            "type" : "VEC3"
        },
        {
            "bufferView" : 21,
            "componentType" : 5126,
            "count" : 42154,
            "type" : "VEC3"
        },
        {
            "bufferView" : 22,
            "componentType" : 5126,
            "count" : 42154,
            "type" : "VEC2"
        },
        {
            "bufferView" : 23,
            "componentType" : 5123,
            "count" : 76548,
            "type" : "SCALAR"
        },
        {
            "bufferView" : 24,
            "componentType" : 5126,
            "count" : 720,
            "max" : [
                1.0852446556091309,
                0.20000000298023224,
                1.0852446556091309
            ],
            "min" : [
                -1.0852446556091309,
                -0.20000000298023224,
                -1.0852446556091309
            ],
            "type" : "VEC3"
        },
        {
            "bufferView" : 25,
            "componentType" : 5126,
            "count" : 720,
            "type" : "VEC3"
        },
        {
            "bufferView" : 26,
            "componentType" : 5126,
            "count" : 720,
            "max" : [
                1.0852446556091309,
                0.20000000298023224,
                1.0852446556091309
            ],
            "min" : [
                -1.0852446556091309,
                -0.20000000298023224,
                -1.0852446556091309
            ],
            "type" : "VEC3"
        },
        {
            "bufferView" : 27,
            "componentType" : 5126,
            "count" : 720,
            "type" : "VEC3"
        },
        {
            "bufferView" : 28,
            "componentType" : 5126,
            "count" : 4,
            "max" : [
                0.44749999046325684,
                0,
                0.5
            ],
            "min" : [
                -0.44749999046325684,
                0,
                -0.5
            ],
            "type" : "VEC3"
        },
        {
            "bufferView" : 29,
            "componentType" : 5126,
            "count" : 4,
            "type" : "VEC3"
        },
        {
            "bufferView" : 30,
            "componentType" : 5126,
            "count" : 4,
            "type" : "VEC2"
        },
        {
            "bufferView" : 32,
            "componentType" : 5126,
            "count" : 52,
            "max" : [
                2.1666666666666665
            ],
            "min" : [
                0.041666666666666664
            ],
            "type" : "SCALAR"
        },
        {
            "bufferView" : 33,
            "componentType" : 5126,
            "count" : 52,
            "type" : "VEC4"
        },
        {
            "bufferView" : 34,
            "componentType" : 5126,
            "count" : 170,
            "max" : [
                7.041666666666667
            ],
            "min" : [
                0
            ],
            "type" : "SCALAR"
        },
        {
            "bufferView" : 35,
            "componentType" : 5126,
            "count" : 170,
            "type" : "VEC4"
        },
        {
            "bufferView" : 36,
            "componentType" : 5126,
            "count" : 1,
            "max" : [
                10
            ],
            "min" : [
                10
            ],
            "type" : "SCALAR"
        },
        {
            "bufferView" : 37,
            "componentType" : 5126,
            "count" : 1,
            "type" : "VEC3"
        }
    ],
    "bufferViews" : [
        {
            "buffer" : 0,
            "byteLength" : 214272,
            "byteOffset" : 0
        },
        {
            "buffer" : 0,
            "byteLength" : 214272,
            "byteOffset" : 214272
        },
        {
            "buffer" : 0,
            "byteLength" : 53568,
            "byteOffset" : 428544
        },
        {
            "buffer" : 0,
            "byteLength" : 8640,
            "byteOffset" : 482112
        },
        {
            "buffer" : 0,
            "byteLength" : 8640,
            "byteOffset" : 490752
        },
        {
            "buffer" : 0,
            "byteLength" : 3456,
            "byteOffset" : 499392
        },
        {
            "buffer" : 0,
            "byteLength" : 7200,
            "byteOffset" : 502848
        },
        {
            "buffer" : 0,
            "byteLength" : 7200,
            "byteOffset" : 510048
        },
        {
            "buffer" : 0,
            "byteLength" : 1800,
            "byteOffset" : 517248
        },
        {
            "buffer" : 0,
            "byteLength" : 7200,
            "byteOffset" : 519048
        },
        {
            "buffer" : 0,
            "byteLength" : 7200,
            "byteOffset" : 526248
        },
        {
            "buffer" : 0,
            "byteLength" : 84372,
            "byteOffset" : 533448
        },
        {
            "buffer" : 0,
            "byteLength" : 84372,
            "byteOffset" : 617820
        },
        {
            "buffer" : 0,
            "byteLength" : 56248,
            "byteOffset" : 702192
        },
        {
            "buffer" : 0,
            "byteLength" : 25776,
            "byteOffset" : 758440
        },
        {
            "buffer" : 0,
            "byteLength" : 48,
            "byteOffset" : 784216
        },
        {
            "buffer" : 0,
            "byteLength" : 48,
            "byteOffset" : 784264
        },
        {
            "buffer" : 0,
            "byteLength" : 32,
            "byteOffset" : 784312
        },
        {
            "buffer" : 0,
            "byteLength" : 12,
            "byteOffset" : 784344
        },
        {
            "buffer" : 0,
            "byteLength" : 150028,
            "byteOffset" : 784356
        },
        {
            "buffer" : 0,
            "byteLength" : 505848,
            "byteOffset" : 934384
        },
        {
            "buffer" : 0,
            "byteLength" : 505848,
            "byteOffset" : 1440232
        },
        {
            "buffer" : 0,
            "byteLength" : 337232,
            "byteOffset" : 1946080
        },
        {
            "buffer" : 0,
            "byteLength" : 153096,
            "byteOffset" : 2283312
        },
        {
            "buffer" : 0,
            "byteLength" : 8640,
            "byteOffset" : 2436408
        },
        {
            "buffer" : 0,
            "byteLength" : 8640,
            "byteOffset" : 2445048
        },
        {
            "buffer" : 0,
            "byteLength" : 8640,
            "byteOffset" : 2453688
        },
        {
            "buffer" : 0,
            "byteLength" : 8640,
            "byteOffset" : 2462328
        },
        {
            "buffer" : 0,
            "byteLength" : 48,
            "byteOffset" : 2470968
        },
        {
            "buffer" : 0,
            "byteLength" : 48,
            "byteOffset" : 2471016
        },
        {
            "buffer" : 0,
            "byteLength" : 32,
            "byteOffset" : 2471064
        },
        {
            "buffer" : 0,
            "byteLength" : 58893,
            "byteOffset" : 2471096
        },
        {
            "buffer" : 0,
            "byteLength" : 208,
            "byteOffset" : 2529992
        },
        {
            "buffer" : 0,
            "byteLength" : 832,
            "byteOffset" : 2530200
        },
        {
            "buffer" : 0,
            "byteLength" : 680,
            "byteOffset" : 2531032
        },
        {
            "buffer" : 0,
            "byteLength" : 2720,
            "byteOffset" : 2531712
        },
        {
            "buffer" : 0,
            "byteLength" : 4,
            "byteOffset" : 2534432
        },
        {
            "buffer" : 0,
            "byteLength" : 12,
            "byteOffset" : 2534436
        }
    ],
    "samplers" : [
        {
            "magFilter" : 9729,
            "minFilter" : 9987,
            "wrapS" : 33071,
            "wrapT" : 33071
        }
    ],
    "buffers" : [
        {
            "byteLength" : 2534448,
            "uri" : "data:application/octet-stream;base64,"
        }
    ]
}
