{
    "asset": {
        "copyright": "2020 (c) Adobe Inc.",
        "generator": "Adobe Dimension - a39c749b7f1dd68e8fcb597e3575f0bb9d09bfc8",
        "version": "2.0"
    },
    "accessors": [
        {
            "bufferView": 0,
            "componentType": 5126,
            "count": 36108,
            "type": "VEC3",
            "max": [
                1.1306445598602296,
                0.09470702707767487,
                0.0
            ],
            "min": [
                0.004570312332361937,
                -0.0016503905644640327,
                -0.009999999776482582
            ]
        },
        {
            "bufferView": 1,
            "componentType": 5126,
            "count": 36108,
            "type": "VEC3"
        },
        {
            "bufferView": 2,
            "componentType": 5126,
            "count": 36108,
            "type": "VEC2"
        },
        {
            "bufferView": 3,
            "componentType": 5125,
            "count": 36108,
            "type": "SCALAR",
            "max": [
                36107.0
            ],
            "min": [
                0.0
            ]
        }
    ],
    "bufferViews": [
        {
            "buffer": 0,
            "byteOffset": 0,
            "byteLength": 433296,
            "target": 34962
        },
        {
            "buffer": 0,
            "byteOffset": 433296,
            "byteLength": 433296,
            "target": 34962
        },
        {
            "buffer": 0,
            "byteOffset": 866592,
            "byteLength": 288864,
            "target": 34962
        },
        {
            "buffer": 0,
            "byteOffset": 1155456,
            "byteLength": 144432,
            "target": 34963
        }
    ],
    "buffers": [
        {
            "byteLength": 1299888,
            "uri": "name_binary.bin"
        }
    ],
    "cameras": [
        {
            "perspective": {
                "znear": 0.000022625894416705706,
                "yfov": 0.6024156808853149,
                "zfar": 2.0,
                "aspectRatio": 1.3333333730697632
            },
            "type": "perspective",
            "name": "render_camera"
        }
    ],
    "images": [
        {
            "name": "basecolor_image_texture_opacity_image_texture",
            "uri": "name_images/basecolor_image_texture_opacity_image_texture.png",
            "mimeType": "image/png"
        },
        {
            "name": "roughness_image_texture",
            "uri": "name_images/roughness_image_texture.png",
            "mimeType": "image/png"
        },
        {
            "name": "normal_image_texture",
            "uri": "name_images/normal_image_texture.png",
            "mimeType": "image/png"
        }
    ],
    "materials": [
        {
            "pbrMetallicRoughness": {
                "baseColorTexture": {
                    "index": 0
                },
                "metallicFactor": 0.0,
                "metallicRoughnessTexture": {
                    "index": 1
                }
            },
            "normalTexture": {
                "index": 2
            },
            "alphaMode": "MASK",
            "name": "3d Printed Mesh",
            "doubleSided": true
        }
    ],
    "meshes": [
        {
            "name": "TextMesh#",
            "primitives": [
                {
                    "attributes": {
                        "POSITION": 0,
                        "NORMAL": 1,
                        "TEXCOORD_0": 2
                    },
                    "indices": 3,
                    "material": 0
                }
            ]
        }
    ],
    "nodes": [
        {
            "translation": [
                1.6420855522155762,
                0.48840564489364626,
                1.0793262720108033
            ],
            "rotation": [
                -0.12059047073125839,
                0.379409521818161,
                0.04995020851492882,
                0.9159756302833557
            ],
            "scale": [
                1.0,
                1.0,
                0.9999999403953552
            ],
            "camera": 0,
            "name": "render_camera_n3d"
        },
        {
            "scale": [
                1.0,
                1.0,
                5.0
            ],
            "mesh": 0,
            "name": "Text"
        }
    ],
    "samplers": [
        {},
        {},
        {}
    ],
    "scenes": [
        {
            "nodes": [
                0,
                1
            ],
            "name": "scene"
        }
    ],
    "textures": [
        {
            "name": "basecolor_image_texture_opacity_image_texture",
            "sampler": 0,
            "source": 0
        },
        {
            "name": "roughness_image_texture",
            "sampler": 1,
            "source": 1
        },
        {
            "name": "normal_image_texture",
            "sampler": 2,
            "source": 2
        }
    ],
    "scene": 0
}