{
    "asset" : {
        "generator" : "Khronos glTF Blender I/O v1.5.17",
        "version" : "2.0"
    },
    "scene" : 0,
    "scenes" : [
        {
            "name" : "Scene",
            "nodes" : [
                0,
                1,
                2,
                3,
                4,
                5,
                6
            ]
        }
    ],
    "nodes" : [
        {
            "name" : "Light",
            "rotation" : [
                0.16907575726509094,
                0.7558803558349609,
                -0.27217137813568115,
                0.570947527885437
            ],
            "translation" : [
                4.076245307922363,
                5.903861999511719,
                -1.0054539442062378
            ]
        },
        {
            "name" : "Camera",
            "rotation" : [
                0.483536034822464,
                0.33687159419059753,
                -0.20870360732078552,
                0.7804827094078064
            ],
            "translation" : [
                7.358891487121582,
                4.958309173583984,
                6.925790786743164
            ]
        },
        {
            "mesh" : 0,
            "name" : "text",
            "scale" : [
                0.6000000238418579,
                0.6000000238418579,
                0.6000000238418579
            ],
            "translation" : [
                8.300000190734863,
                0.5,
                0.5
            ]
        },
        {
            "mesh" : 1,
            "name" : "Sitting",
            "rotation" : [
                0.2588190734386444,
                0,
                0,
                0.965925931930542
            ],
            "scale" : [
                6,
                1,
                6
            ],
            "translation" : [
                5.300000190734863,
                2,
                -4
            ]
        },
        {
            "mesh" : 2,
            "name" : "Cube",
            "scale" : [
                1,
                50,
                1
            ],
            "translation" : [
                0,
                4,
                0
            ]
        },
        {
            "mesh" : 3,
            "name" : "Cylinder",
            "rotation" : [
                0.5,
                -0.5,
                -0.5,
                0.4999999701976776
            ],
            "scale" : [
                0.30000001192092896,
                0.10000000149011612,
                1
            ],
            "translation" : [
                0,
                4.5,
                2.5
            ]
        },
        {
            "mesh" : 4,
            "name" : "PPlogo",
            "rotation" : [
                0,
                0,
                0.0009461322915740311,
                -0.9999996423721313
            ],
            "scale" : [
                5,
                1,
                5
            ],
            "translation" : [
                0,
                4.5,
                7
            ]
        }
    ],
    "animations" : [
        {
            "channels" : [
                {
                    "sampler" : 0,
                    "target" : {
                        "node" : 4,
                        "path" : "scale"
                    }
                },
                {
                    "sampler" : 1,
                    "target" : {
                        "node" : 4,
                        "path" : "translation"
                    }
                },
                {
                    "sampler" : 2,
                    "target" : {
                        "node" : 5,
                        "path" : "scale"
                    }
                },
                {
                    "sampler" : 3,
                    "target" : {
                        "node" : 6,
                        "path" : "rotation"
                    }
                }
            ],
            "name" : "Animation",
            "samplers" : [
                {
                    "input" : 19,
                    "interpolation" : "LINEAR",
                    "output" : 20
                },
                {
                    "input" : 21,
                    "interpolation" : "STEP",
                    "output" : 22
                },
                {
                    "input" : 23,
                    "interpolation" : "LINEAR",
                    "output" : 24
                },
                {
                    "input" : 25,
                    "interpolation" : "LINEAR",
                    "output" : 26
                }
            ]
        }
    ],
    "materials" : [
        {
            "doubleSided" : true,
            "name" : "Material.003",
            "pbrMetallicRoughness" : {
                "baseColorFactor" : [
                    0.003545148065313697,
                    0.14980538189411163,
                    0.013228513300418854,
                    1
                ],
                "metallicFactor" : 0,
                "roughnessFactor" : 0.5
            }
        },
        {
            "alphaMode" : "BLEND",
            "doubleSided" : true,
            "name" : "Sitting",
            "pbrMetallicRoughness" : {
                "baseColorTexture" : {
                    "index" : 0
                },
                "metallicFactor" : 0,
                "roughnessFactor" : 0.5
            }
        },
        {
            "alphaMode" : "BLEND",
            "name" : "Material.002",
            "pbrMetallicRoughness" : {
                "baseColorFactor" : [
                    0.004809057340025902,
                    0.5925822854042053,
                    0.01636902429163456,
                    0.5
                ],
                "metallicFactor" : 0,
                "roughnessFactor" : 0.5
            }
        },
        {
            "alphaMode" : "BLEND",
            "doubleSided" : true,
            "name" : "PPlogo",
            "pbrMetallicRoughness" : {
                "baseColorTexture" : {
                    "index" : 1
                },
                "metallicFactor" : 0,
                "roughnessFactor" : 0.5
            }
        }
    ],
    "meshes" : [
        {
            "name" : "Text",
            "primitives" : [
                {
                    "attributes" : {
                        "POSITION" : 0,
                        "NORMAL" : 1,
                        "TEXCOORD_0" : 2
                    },
                    "indices" : 3,
                    "material" : 0
                }
            ]
        },
        {
            "name" : "Sitting.002",
            "primitives" : [
                {
                    "attributes" : {
                        "POSITION" : 4,
                        "NORMAL" : 5,
                        "TEXCOORD_0" : 6
                    },
                    "indices" : 7,
                    "material" : 1
                }
            ]
        },
        {
            "name" : "Cube",
            "primitives" : [
                {
                    "attributes" : {
                        "POSITION" : 8,
                        "NORMAL" : 9,
                        "TEXCOORD_0" : 10
                    },
                    "indices" : 11,
                    "material" : 2
                }
            ]
        },
        {
            "name" : "Cylinder",
            "primitives" : [
                {
                    "attributes" : {
                        "POSITION" : 12,
                        "NORMAL" : 13,
                        "TEXCOORD_0" : 14
                    },
                    "indices" : 15,
                    "material" : 2
                }
            ]
        },
        {
            "name" : "PPlogo",
            "primitives" : [
                {
                    "attributes" : {
                        "POSITION" : 16,
                        "NORMAL" : 17,
                        "TEXCOORD_0" : 18
                    },
                    "indices" : 7,
                    "material" : 3
                }
            ]
        }
    ],
    "textures" : [
        {
            "sampler" : 0,
            "source" : 0
        },
        {
            "sampler" : 0,
            "source" : 1
        }
    ],
    "images" : [
        {
            "bufferView" : 8,
            "mimeType" : "image/png",
            "name" : "Sitting"
        },
        {
            "bufferView" : 20,
            "mimeType" : "image/png",
            "name" : "PPlogo"
        }
    ],
    "accessors" : [
        {
            "bufferView" : 0,
            "componentType" : 5126,
            "count" : 8588,
            "max" : [
                -0.0010001659393310547,
                0,
                5.008999824523926
            ],
            "min" : [
                -9.583999633789062,
                0,
                -0.6820000410079956
            ],
            "type" : "VEC3"
        },
        {
            "bufferView" : 1,
            "componentType" : 5126,
            "count" : 8588,
            "type" : "VEC3"
        },
        {
            "bufferView" : 2,
            "componentType" : 5126,
            "count" : 8588,
            "type" : "VEC2"
        },
        {
            "bufferView" : 3,
            "componentType" : 5123,
            "count" : 19005,
            "type" : "SCALAR"
        },
        {
            "bufferView" : 4,
            "componentType" : 5126,
            "count" : 4,
            "max" : [
                0.5,
                0,
                0.5
            ],
            "min" : [
                -0.5,
                0,
                -0.5
            ],
            "type" : "VEC3"
        },
        {
            "bufferView" : 5,
            "componentType" : 5126,
            "count" : 4,
            "type" : "VEC3"
        },
        {
            "bufferView" : 6,
            "componentType" : 5126,
            "count" : 4,
            "type" : "VEC2"
        },
        {
            "bufferView" : 7,
            "componentType" : 5123,
            "count" : 6,
            "type" : "SCALAR"
        },
        {
            "bufferView" : 9,
            "componentType" : 5126,
            "count" : 24,
            "max" : [
                1,
                1,
                1
            ],
            "min" : [
                -1,
                -1,
                -1
            ],
            "type" : "VEC3"
        },
        {
            "bufferView" : 10,
            "componentType" : 5126,
            "count" : 24,
            "type" : "VEC3"
        },
        {
            "bufferView" : 11,
            "componentType" : 5126,
            "count" : 24,
            "type" : "VEC2"
        },
        {
            "bufferView" : 12,
            "componentType" : 5123,
            "count" : 36,
            "type" : "SCALAR"
        },
        {
            "bufferView" : 13,
            "componentType" : 5126,
            "count" : 192,
            "max" : [
                1,
                1,
                1
            ],
            "min" : [
                -1,
                -1,
                -1
            ],
            "type" : "VEC3"
        },
        {
            "bufferView" : 14,
            "componentType" : 5126,
            "count" : 192,
            "type" : "VEC3"
        },
        {
            "bufferView" : 15,
            "componentType" : 5126,
            "count" : 192,
            "type" : "VEC2"
        },
        {
            "bufferView" : 16,
            "componentType" : 5123,
            "count" : 372,
            "type" : "SCALAR"
        },
        {
            "bufferView" : 17,
            "componentType" : 5126,
            "count" : 4,
            "max" : [
                0.44749999046325684,
                0,
                0.5
            ],
            "min" : [
                -0.44749999046325684,
                0,
                -0.5
            ],
            "type" : "VEC3"
        },
        {
            "bufferView" : 18,
            "componentType" : 5126,
            "count" : 4,
            "type" : "VEC3"
        },
        {
            "bufferView" : 19,
            "componentType" : 5126,
            "count" : 4,
            "type" : "VEC2"
        },
        {
            "bufferView" : 21,
            "componentType" : 5126,
            "count" : 48,
            "max" : [
                2
            ],
            "min" : [
                0.041666666666666664
            ],
            "type" : "SCALAR"
        },
        {
            "bufferView" : 22,
            "componentType" : 5126,
            "count" : 48,
            "type" : "VEC3"
        },
        {
            "bufferView" : 23,
            "componentType" : 5126,
            "count" : 1,
            "max" : [
                20.75
            ],
            "min" : [
                20.75
            ],
            "type" : "SCALAR"
        },
        {
            "bufferView" : 24,
            "componentType" : 5126,
            "count" : 1,
            "type" : "VEC3"
        },
        {
            "bufferView" : 25,
            "componentType" : 5126,
            "count" : 13,
            "max" : [
                2.5
            ],
            "min" : [
                2
            ],
            "type" : "SCALAR"
        },
        {
            "bufferView" : 26,
            "componentType" : 5126,
            "count" : 13,
            "type" : "VEC3"
        },
        {
            "bufferView" : 27,
            "componentType" : 5126,
            "count" : 97,
            "max" : [
                4
            ],
            "min" : [
                0
            ],
            "type" : "SCALAR"
        },
        {
            "bufferView" : 28,
            "componentType" : 5126,
            "count" : 97,
            "type" : "VEC4"
        }
    ],
    "bufferViews" : [
        {
            "buffer" : 0,
            "byteLength" : 103056,
            "byteOffset" : 0
        },
        {
            "buffer" : 0,
            "byteLength" : 103056,
            "byteOffset" : 103056
        },
        {
            "buffer" : 0,
            "byteLength" : 68704,
            "byteOffset" : 206112
        },
        {
            "buffer" : 0,
            "byteLength" : 38010,
            "byteOffset" : 274816
        },
        {
            "buffer" : 0,
            "byteLength" : 48,
            "byteOffset" : 312828
        },
        {
            "buffer" : 0,
            "byteLength" : 48,
            "byteOffset" : 312876
        },
        {
            "buffer" : 0,
            "byteLength" : 32,
            "byteOffset" : 312924
        },
        {
            "buffer" : 0,
            "byteLength" : 12,
            "byteOffset" : 312956
        },
        {
            "buffer" : 0,
            "byteLength" : 143463,
            "byteOffset" : 312968
        },
        {
            "buffer" : 0,
            "byteLength" : 288,
            "byteOffset" : 456432
        },
        {
            "buffer" : 0,
            "byteLength" : 288,
            "byteOffset" : 456720
        },
        {
            "buffer" : 0,
            "byteLength" : 192,
            "byteOffset" : 457008
        },
        {
            "buffer" : 0,
            "byteLength" : 72,
            "byteOffset" : 457200
        },
        {
            "buffer" : 0,
            "byteLength" : 2304,
            "byteOffset" : 457272
        },
        {
            "buffer" : 0,
            "byteLength" : 2304,
            "byteOffset" : 459576
        },
        {
            "buffer" : 0,
            "byteLength" : 1536,
            "byteOffset" : 461880
        },
        {
            "buffer" : 0,
            "byteLength" : 744,
            "byteOffset" : 463416
        },
        {
            "buffer" : 0,
            "byteLength" : 48,
            "byteOffset" : 464160
        },
        {
            "buffer" : 0,
            "byteLength" : 48,
            "byteOffset" : 464208
        },
        {
            "buffer" : 0,
            "byteLength" : 32,
            "byteOffset" : 464256
        },
        {
            "buffer" : 0,
            "byteLength" : 58893,
            "byteOffset" : 464288
        },
        {
            "buffer" : 0,
            "byteLength" : 192,
            "byteOffset" : 523184
        },
        {
            "buffer" : 0,
            "byteLength" : 576,
            "byteOffset" : 523376
        },
        {
            "buffer" : 0,
            "byteLength" : 4,
            "byteOffset" : 523952
        },
        {
            "buffer" : 0,
            "byteLength" : 12,
            "byteOffset" : 523956
        },
        {
            "buffer" : 0,
            "byteLength" : 52,
            "byteOffset" : 523968
        },
        {
            "buffer" : 0,
            "byteLength" : 156,
            "byteOffset" : 524020
        },
        {
            "buffer" : 0,
            "byteLength" : 388,
            "byteOffset" : 524176
        },
        {
            "buffer" : 0,
            "byteLength" : 1552,
            "byteOffset" : 524564
        }
    ],
    "samplers" : [
        {
            "magFilter" : 9729,
            "minFilter" : 9987,
            "wrapS" : 33071,
            "wrapT" : 33071
        }
    ],
    "buffers" : [
        {
            "byteLength" : 526116,
            "uri" : "data:application/octet-stream;base64,"
        }
    ]
}
