{
    "asset" : {
        "generator" : "Khronos glTF Blender I/O v1.5.17",
        "version" : "2.0"
    },
    "scene" : 0,
    "scenes" : [
        {
            "name" : "Scene",
            "nodes" : [
                0,
                1,
                2,
                3,
                4,
                5
            ]
        }
    ],
    "nodes" : [
        {
            "name" : "Light",
            "rotation" : [
                0.16907575726509094,
                0.7558803558349609,
                -0.27217137813568115,
                0.570947527885437
            ],
            "translation" : [
                4.076245307922363,
                5.903861999511719,
                -1.0054539442062378
            ]
        },
        {
            "name" : "Camera",
            "rotation" : [
                0.483536034822464,
                0.33687159419059753,
                -0.20870360732078552,
                0.7804827094078064
            ],
            "translation" : [
                7.358891487121582,
                4.958309173583984,
                6.925790786743164
            ]
        },
        {
            "mesh" : 0,
            "name" : "paakLogoWhite",
            "rotation" : [
                0.7071068286895752,
                0,
                0,
                0.7071068286895752
            ],
            "translation" : [
                0,
                1,
                0.6000000238418579
            ]
        },
        {
            "mesh" : 1,
            "name" : "Cylinder.001",
            "rotation" : [
                0,
                0,
                -0.08715573698282242,
                0.9961947202682495
            ],
            "scale" : [
                0.05000000074505806,
                1.2000000476837158,
                0.05000000074505806
            ],
            "translation" : [
                0,
                1.2999999523162842,
                0
            ]
        },
        {
            "mesh" : 2,
            "name" : "White Paper cup",
            "scale" : [
                25,
                25,
                25
            ]
        },
        {
            "mesh" : 3,
            "name" : "Cylinder",
            "scale" : [
                0.4000000059604645,
                0.800000011920929,
                0.4000000059604645
            ],
            "translation" : [
                0,
                0.8999999761581421,
                0
            ]
        }
    ],
    "materials" : [
        {
            "alphaMode" : "BLEND",
            "doubleSided" : true,
            "name" : "paakLogoWhite",
            "pbrMetallicRoughness" : {
                "baseColorTexture" : {
                    "index" : 0
                },
                "metallicFactor" : 0,
                "roughnessFactor" : 0.5
            }
        },
        {
            "alphaMode" : "BLEND",
            "doubleSided" : true,
            "name" : "Material.003",
            "pbrMetallicRoughness" : {
                "baseColorFactor" : [
                    0.27000001072883606,
                    0.27000001072883606,
                    0.27000001072883606,
                    0.20000000298023224
                ],
                "metallicFactor" : 0,
                "roughnessFactor" : 0.5
            }
        },
        {
            "alphaMode" : "BLEND",
            "doubleSided" : true,
            "name" : "Material.001",
            "pbrMetallicRoughness" : {
                "baseColorFactor" : [
                    0.2693174183368683,
                    0.2693174183368683,
                    0.2693174183368683,
                    0.20000000298023224
                ],
                "metallicFactor" : 0,
                "roughnessFactor" : 0.800000011920929
            }
        },
        {
            "doubleSided" : true,
            "name" : "Material.004",
            "pbrMetallicRoughness" : {
                "baseColorFactor" : [
                    0,
                    0.1959420144557953,
                    0.0002468492020852864,
                    0.8999999761581421
                ],
                "metallicFactor" : 0,
                "roughnessFactor" : 0.5
            }
        }
    ],
    "meshes" : [
        {
            "name" : "paakLogoWhite",
            "primitives" : [
                {
                    "attributes" : {
                        "POSITION" : 0,
                        "NORMAL" : 1,
                        "TEXCOORD_0" : 2
                    },
                    "indices" : 3,
                    "material" : 0
                }
            ]
        },
        {
            "name" : "Cylinder.001",
            "primitives" : [
                {
                    "attributes" : {
                        "POSITION" : 4,
                        "NORMAL" : 5,
                        "TEXCOORD_0" : 6
                    },
                    "indices" : 7,
                    "material" : 1
                }
            ]
        },
        {
            "name" : "Circle",
            "primitives" : [
                {
                    "attributes" : {
                        "POSITION" : 8,
                        "NORMAL" : 9,
                        "TEXCOORD_0" : 10
                    },
                    "indices" : 11,
                    "material" : 2
                }
            ]
        },
        {
            "name" : "Cylinder.002",
            "primitives" : [
                {
                    "attributes" : {
                        "POSITION" : 12,
                        "NORMAL" : 13,
                        "TEXCOORD_0" : 14
                    },
                    "indices" : 15,
                    "material" : 3
                }
            ]
        }
    ],
    "textures" : [
        {
            "sampler" : 0,
            "source" : 0
        }
    ],
    "images" : [
        {
            "bufferView" : 4,
            "mimeType" : "image/png",
            "name" : "paakLogoWhite"
        }
    ],
    "accessors" : [
        {
            "bufferView" : 0,
            "componentType" : 5126,
            "count" : 1586,
            "max" : [
                0.5,
                0,
                0.5
            ],
            "min" : [
                -0.5,
                0,
                -0.5
            ],
            "type" : "VEC3"
        },
        {
            "bufferView" : 1,
            "componentType" : 5126,
            "count" : 1586,
            "type" : "VEC3"
        },
        {
            "bufferView" : 2,
            "componentType" : 5126,
            "count" : 1586,
            "type" : "VEC2"
        },
        {
            "bufferView" : 3,
            "componentType" : 5123,
            "count" : 6534,
            "type" : "SCALAR"
        },
        {
            "bufferView" : 5,
            "componentType" : 5126,
            "count" : 547,
            "max" : [
                1,
                1.0000001192092896,
                1
            ],
            "min" : [
                -1,
                -1,
                -1
            ],
            "type" : "VEC3"
        },
        {
            "bufferView" : 6,
            "componentType" : 5126,
            "count" : 547,
            "type" : "VEC3"
        },
        {
            "bufferView" : 7,
            "componentType" : 5126,
            "count" : 547,
            "type" : "VEC2"
        },
        {
            "bufferView" : 8,
            "componentType" : 5123,
            "count" : 1140,
            "type" : "SCALAR"
        },
        {
            "bufferView" : 9,
            "componentType" : 5126,
            "count" : 416,
            "max" : [
                0.026750575751066208,
                0.07335774600505829,
                0.026750583201646805
            ],
            "min" : [
                -0.026750586926937103,
                0,
                -0.026750579476356506
            ],
            "type" : "VEC3"
        },
        {
            "bufferView" : 10,
            "componentType" : 5126,
            "count" : 416,
            "type" : "VEC3"
        },
        {
            "bufferView" : 11,
            "componentType" : 5126,
            "count" : 416,
            "type" : "VEC2"
        },
        {
            "bufferView" : 12,
            "componentType" : 5123,
            "count" : 2394,
            "type" : "SCALAR"
        },
        {
            "bufferView" : 13,
            "componentType" : 5126,
            "count" : 192,
            "max" : [
                1.5055744647979736,
                0.9999997019767761,
                1.5055745840072632
            ],
            "min" : [
                -1.5055744647979736,
                -1,
                -1.5055744647979736
            ],
            "type" : "VEC3"
        },
        {
            "bufferView" : 14,
            "componentType" : 5126,
            "count" : 192,
            "type" : "VEC3"
        },
        {
            "bufferView" : 15,
            "componentType" : 5126,
            "count" : 192,
            "type" : "VEC2"
        },
        {
            "bufferView" : 16,
            "componentType" : 5123,
            "count" : 372,
            "type" : "SCALAR"
        }
    ],
    "bufferViews" : [
        {
            "buffer" : 0,
            "byteLength" : 19032,
            "byteOffset" : 0
        },
        {
            "buffer" : 0,
            "byteLength" : 19032,
            "byteOffset" : 19032
        },
        {
            "buffer" : 0,
            "byteLength" : 12688,
            "byteOffset" : 38064
        },
        {
            "buffer" : 0,
            "byteLength" : 13068,
            "byteOffset" : 50752
        },
        {
            "buffer" : 0,
            "byteLength" : 39048,
            "byteOffset" : 63820
        },
        {
            "buffer" : 0,
            "byteLength" : 6564,
            "byteOffset" : 102868
        },
        {
            "buffer" : 0,
            "byteLength" : 6564,
            "byteOffset" : 109432
        },
        {
            "buffer" : 0,
            "byteLength" : 4376,
            "byteOffset" : 115996
        },
        {
            "buffer" : 0,
            "byteLength" : 2280,
            "byteOffset" : 120372
        },
        {
            "buffer" : 0,
            "byteLength" : 4992,
            "byteOffset" : 122652
        },
        {
            "buffer" : 0,
            "byteLength" : 4992,
            "byteOffset" : 127644
        },
        {
            "buffer" : 0,
            "byteLength" : 3328,
            "byteOffset" : 132636
        },
        {
            "buffer" : 0,
            "byteLength" : 4788,
            "byteOffset" : 135964
        },
        {
            "buffer" : 0,
            "byteLength" : 2304,
            "byteOffset" : 140752
        },
        {
            "buffer" : 0,
            "byteLength" : 2304,
            "byteOffset" : 143056
        },
        {
            "buffer" : 0,
            "byteLength" : 1536,
            "byteOffset" : 145360
        },
        {
            "buffer" : 0,
            "byteLength" : 744,
            "byteOffset" : 146896
        }
    ],
    "samplers" : [
        {
            "magFilter" : 9729,
            "minFilter" : 9987,
            "wrapS" : 33071,
            "wrapT" : 33071
        }
    ],
    "buffers" : [
        {
            "byteLength" : 147640,
            "uri" : "data:application/octet-stream;base64,"
        }
    ]
}
